HIERARCHY
ROOT Pelvis
{
	OFFSET 0.000000 0.000000 0.000000
	CHANNELS 6 Xposition Yposition Zposition Xrotation Yrotation Zrotation
	JOINT LeftUpLeg_virtual
	{
		OFFSET 0.000000 0.000000 0.000000
		CHANNELS 3 Xrotation Yrotation Zrotation
		JOINT LeftUpLeg
		{
			OFFSET 18.735201 -5.666702 -4.541200
			CHANNELS 3 Xrotation Yrotation Zrotation
			JOINT LeftLeg
			{
				OFFSET -0.021200 -31.938179 0.493100
				CHANNELS 3 Xrotation Yrotation Zrotation
				JOINT LeftFoot
				{
					OFFSET 0.021200 -31.938179 -4.336299
					CHANNELS 3 Xrotation Yrotation Zrotation
					JOINT LeftToeBase
					{
						OFFSET 0.943001 -26.722000 15.023500
						CHANNELS 3 Xrotation Yrotation Zrotation
						End Site
						{
							OFFSET 0 0 0
						}
					}
				}
			}
		}
	}
	JOINT RightUpLeg_virtual
	{
		OFFSET 0.000000 0.000000 0.000000
		CHANNELS 3 Xrotation Yrotation Zrotation
		JOINT RightUpLeg
		{
			OFFSET -18.735201 -5.666702 -4.541200
			CHANNELS 3 Xrotation Yrotation Zrotation
			JOINT RightLeg
			{
				OFFSET 0.018946 -31.938133 0.493100
				CHANNELS 3 Xrotation Yrotation Zrotation
				JOINT RightFoot
				{
					OFFSET -0.018946 -31.938126 -4.336299
					CHANNELS 3 Xrotation Yrotation Zrotation
					JOINT RightToeBase
					{
						OFFSET -0.943001 -26.722004 15.023500
						CHANNELS 3 Xrotation Yrotation Zrotation
						End Site
						{
							OFFSET 0 0 0
						}
					}
				}
			}
		}
	}
	JOINT Hips_virtual
	{
		OFFSET 0.000000 0.000000 0.000000
		CHANNELS 3 Xrotation Yrotation Zrotation
		JOINT Hips
		{
			OFFSET -0.000000 -0.000000 -0.000000
			CHANNELS 3 Xrotation Yrotation Zrotation
			JOINT Spine
			{
				OFFSET 0.000000 10.199997 -0.299500
				CHANNELS 3 Xrotation Yrotation Zrotation
				JOINT Spine1
				{
					OFFSET 0.000000 11.900002 -1.516600
					CHANNELS 3 Xrotation Yrotation Zrotation
					JOINT Spine2
					{
						OFFSET 0.000000 13.600006 -2.842500
						CHANNELS 3 Xrotation Yrotation Zrotation
						JOINT Neck_virtual
						{
							OFFSET 0.000000 0.000000 0.000000
							CHANNELS 3 Xrotation Yrotation Zrotation
							JOINT Neck
							{
								OFFSET 0.000000 9.624100 -2.890100
								CHANNELS 3 Xrotation Yrotation Zrotation
								JOINT Head
								{
									OFFSET 0.000000 14.068802 -1.351900
									CHANNELS 3 Xrotation Yrotation Zrotation
									End Site
									{
										OFFSET 0 0 0
									}
								}
							}
						}
						JOINT LeftShoulder_virtual
						{
							OFFSET 0.000000 0.000000 0.000000
							CHANNELS 3 Xrotation Yrotation Zrotation
							JOINT LeftShoulder
							{
								OFFSET 15.263000 10.923401 -0.547700
								CHANNELS 3 Xrotation Yrotation Zrotation
								JOINT LeftArm
								{
									OFFSET 25.438599 -2.830597 -13.032500
									CHANNELS 3 Xrotation Yrotation Zrotation
									JOINT LeftForeArm
									{
										OFFSET 29.960503 0.000000 0.000000
										CHANNELS 3 Xrotation Yrotation Zrotation
										JOINT LeftHand
										{
											OFFSET 27.849251 0.000000 0.000000
											CHANNELS 3 Xrotation Yrotation Zrotation
											End Site
											{
												OFFSET 0 0 0
											}
										}
									}
								}
							}
						}
						JOINT RightShoulder_virtual
						{
							OFFSET 0.000000 0.000000 0.000000
							CHANNELS 3 Xrotation Yrotation Zrotation
							JOINT RightShoulder
							{
								OFFSET -15.263000 10.923401 -0.547700
								CHANNELS 3 Xrotation Yrotation Zrotation
								JOINT RightArm
								{
									OFFSET -25.438599 -2.830597 -13.032500
									CHANNELS 3 Xrotation Yrotation Zrotation
									JOINT RightForeArm
									{
										OFFSET -29.960503 0.000000 0.000000
										CHANNELS 3 Xrotation Yrotation Zrotation
										JOINT RightHand
										{
											OFFSET -27.849251 0.000000 0.000000
											CHANNELS 3 Xrotation Yrotation Zrotation
											End Site
											{
												OFFSET 0 0 0
											}
										}
									}
								}
							}
						}
					}
				}
			}
		}
	}
}
MOTION
Frames: 9
Frame Time: 0.03333333
10.380911 81.879074 -7.483994 0.000000 0.000000 0.000000 55.093566 -6.821050 4.239213 -92.492830 -6.676959 6.213547 55.295026 8.926556 -4.869808 -14.471523 13.956668 -3.376939 0.000000 0.000000 0.000000 55.093566 -6.821050 4.239213 -69.322903 8.230547 -4.991507 64.840898 2.632892 -4.939582 6.169268 -2.762260 6.910046 0.000000 0.000000 0.000000 55.093566 -6.821050 4.239213 0.000000 0.000000 0.000000 6.429682 0.280908 -0.611255 15.063531 1.404744 -0.847226 0.000000 0.000000 0.000000 25.668443 1.557015 -0.177842 -8.772161 0.106705 1.294854 0.000000 0.000000 0.000000 25.668443 1.557015 -0.177842 3.359785 -11.332868 0.850118 -25.850591 -35.679720 -27.707658 -0.000016 -43.985271 -0.000008 0.000000 0.000000 0.000000 25.668443 1.557015 -0.177842 0.611273 31.893637 8.610644 -33.996819 35.443754 11.882225 0.000006 24.919383 0.000003 0.000000 0.000000 0.000000 
10.318592 82.686600 -7.069489 0.000000 0.000000 0.000000 53.784461 -7.309082 4.154407 -89.684024 -6.561284 6.644349 53.643285 8.946945 -4.900960 -14.253567 14.114383 -3.309470 0.000000 0.000000 0.000000 53.784461 -7.309082 4.154407 -70.897152 8.264923 -4.954885 65.728434 1.838451 -4.655169 4.552770 -2.787444 6.650822 0.000000 0.000000 0.000000 53.784461 -7.309082 4.154407 0.000003 0.000000 0.000000 6.385064 0.266865 -0.568806 14.959059 1.376008 -0.738084 0.000000 0.000000 0.000000 25.530262 1.548437 -0.069473 -8.637793 0.147760 1.261182 0.000000 0.000000 0.000000 25.530262 1.548437 -0.069473 3.327521 -11.257732 0.298060 -24.534518 -35.097320 -28.877992 -0.000029 -43.052776 -0.000013 0.000000 0.000000 0.000000 25.530262 1.548437 -0.069473 0.454111 31.771889 9.248694 -33.054806 34.716861 13.055003 0.000001 24.898766 -0.000012 0.000000 0.000000 0.000000 
10.253819 83.479248 -6.651237 0.000000 0.000000 0.000000 52.446714 -7.818594 4.052104 -86.857357 -6.403477 7.109424 52.009664 8.934493 -4.943330 -14.051572 14.275672 -3.229201 0.000000 0.000000 0.000000 52.446714 -7.818594 4.052104 -71.973897 8.051636 -5.033635 65.825320 0.488659 -4.361443 2.831384 -2.793448 6.061722 0.000000 0.000000 0.000000 52.446714 -7.818594 4.052104 -0.000002 0.000000 0.000000 6.344623 0.257648 -0.513228 14.862679 1.352664 -0.606152 0.000000 0.000000 0.000000 25.397855 1.548555 0.060529 -8.508646 0.186898 1.215585 0.000000 0.000000 0.000000 25.397855 1.548555 0.060529 3.282056 -11.154453 -0.322866 -23.304160 -34.650154 -30.083336 0.000009 -41.915935 0.000009 0.000000 0.000000 0.000000 25.397855 1.548555 0.060529 0.383120 31.571569 9.612378 -32.161903 33.923692 14.344972 0.000008 24.743658 -0.000009 0.000000 0.000000 0.000000 
10.183050 84.253525 -6.234032 0.000000 0.000000 0.000000 51.122952 -8.338765 3.910186 -84.069028 -6.222934 7.610812 50.397302 8.925656 -4.989457 -13.848962 14.395942 -3.154994 0.000000 0.000000 0.000000 51.122952 -8.338765 3.910186 -72.604166 7.578665 -5.164642 65.198773 -1.086673 -4.051468 1.031590 -2.772537 5.213155 0.000000 0.000000 0.000000 51.122952 -8.338765 3.910186 0.000001 0.000000 0.000000 6.297423 0.255011 -0.449065 14.751825 1.342870 -0.457022 0.000000 0.000000 0.000000 25.248575 1.564635 0.205128 -8.385819 0.221876 1.165656 0.000000 0.000000 0.000000 25.248575 1.564635 0.205128 3.231805 -11.021968 -0.952627 -22.238210 -34.231569 -31.346641 -0.000006 -40.754509 0.000006 0.000000 0.000000 0.000000 25.248575 1.564635 0.205128 0.372575 31.286419 9.795021 -31.370570 33.055151 15.760115 -0.000003 24.457927 0.000000 0.000000 0.000000 0.000000 
10.092587 84.991035 -5.822235 0.000000 0.000000 0.000000 49.853564 -8.849127 3.720271 -81.392707 -6.049321 8.135487 48.846357 8.913818 -5.020081 -13.643509 14.492635 -3.119886 0.000000 0.000000 0.000000 49.853564 -8.849127 3.720271 -72.862614 6.932109 -5.340236 63.896590 -2.340177 -3.715641 -0.688549 -2.737180 4.433699 0.000000 0.000000 0.000000 49.853564 -8.849127 3.720271 -0.000001 0.000000 0.000000 6.230124 0.253799 -0.386371 14.598358 1.342921 -0.303597 0.000000 0.000000 0.000000 25.054386 1.591057 0.352063 -8.267164 0.251088 1.128310 0.000000 0.000000 0.000000 25.054386 1.591057 0.352063 3.185949 -10.858426 -1.510809 -21.370284 -33.790407 -32.751317 -0.000004 -39.584344 0.000006 0.000000 0.000000 0.000000 25.054386 1.591057 0.352063 0.370554 30.945921 9.971292 -30.635632 32.079947 17.167382 0.000009 24.089845 -0.000016 0.000000 0.000000 0.000000 
9.967468 85.677368 -5.411903 0.000000 0.000000 0.000000 48.649009 -9.330313 3.497988 -78.849999 -5.895975 8.659946 47.384632 8.893731 -5.017340 -13.444848 14.595202 -3.151784 0.000000 0.000000 0.000000 48.649009 -9.330313 3.497988 -72.812835 6.264726 -5.584998 61.953545 -2.805910 -3.364208 -2.131930 -2.720528 4.085534 0.000000 0.000000 0.000000 48.649009 -9.330313 3.497988 0.000001 0.000000 0.000000 6.136531 0.247821 -0.333529 14.389141 1.340142 -0.160718 0.000000 0.000000 0.000000 24.802044 1.612855 0.488775 -8.148652 0.274752 1.116148 0.000000 0.000000 0.000000 24.802044 1.612855 0.488775 3.145896 -10.681293 -1.973397 -20.643806 -33.290270 -34.259570 0.000012 -38.432559 0.000004 0.000000 0.000000 0.000000 24.802044 1.612855 0.488775 0.338675 30.593401 10.265902 -29.882317 30.982018 18.435603 0.000004 23.735894 -0.000006 0.000000 0.000000 0.000000 
9.799757 86.312660 -4.994919 0.000000 0.000000 0.000000 47.468712 -9.778127 3.275792 -76.379670 -5.744137 9.166478 46.006423 8.864312 -4.978623 -13.265182 14.723864 -3.258070 0.000000 0.000000 0.000000 47.468712 -9.778127 3.275792 -72.465787 5.711187 -5.906034 59.392115 -2.349660 -3.039413 -3.173234 -2.750170 4.344312 0.000000 0.000000 0.000000 47.468712 -9.778127 3.275792 -0.000001 0.000000 0.000000 6.025463 0.235416 -0.293739 14.142142 1.325229 -0.038995 0.000000 0.000000 0.000000 24.509811 1.618867 0.606509 -8.027076 0.295876 1.125534 0.000000 0.000000 0.000000 24.509811 1.618867 0.606509 3.110104 -10.528955 -2.364153 -19.965399 -32.730376 -35.749811 0.000005 -37.322114 -0.000012 0.000000 0.000000 0.000000 24.509811 1.618867 0.606509 0.278573 30.262663 10.663074 -29.109826 29.813977 19.562246 -0.000002 23.471631 0.000011 0.000000 0.000000 0.000000 
9.591709 86.906052 -4.565979 0.000000 0.000000 0.000000 46.236102 -10.201506 3.082350 -73.877799 -5.551943 9.649263 44.693333 8.828002 -4.917973 -13.117743 14.873854 -3.424323 0.000000 0.000000 0.000000 46.236102 -10.201506 3.082350 -71.779756 5.316177 -6.264481 56.254377 -1.208051 -2.796349 -3.826870 -2.821481 5.094223 0.000000 0.000000 0.000000 46.236102 -10.201506 3.082350 0.000001 0.000000 0.000000 5.916557 0.220273 -0.264860 13.898808 1.299357 0.059620 0.000000 0.000000 0.000000 24.219084 1.609678 0.703356 -7.901973 0.319064 1.137888 0.000000 0.000000 0.000000 24.219084 1.609678 0.703356 3.075834 -10.437443 -2.729134 -19.274316 -32.147242 -37.107441 -0.000003 -36.264514 -0.000000 0.000000 0.000000 0.000000 24.219084 1.609678 0.703356 0.224390 29.960194 11.033929 -28.385570 28.640377 20.652540 -0.000002 23.286970 -0.000027 0.000000 0.000000 0.000000 
9.353802 87.464882 -4.124634 0.000000 0.000000 0.000000 44.888413 -10.602525 2.924045 -71.273475 -5.284168 10.101960 43.432036 8.790545 -4.850980 -13.007639 15.016816 -3.628940 0.000000 0.000000 0.000000 44.888413 -10.602525 2.924045 -70.707771 5.025234 -6.598250 52.650001 0.138306 -2.665022 -4.214784 -2.899745 5.985258 0.000000 0.000000 0.000000 44.888413 -10.602525 2.924045 0.000002 0.000000 0.000000 5.826270 0.207966 -0.240986 13.694043 1.268938 0.141102 0.000000 0.000000 0.000000 23.964999 1.592475 0.784296 -7.774100 0.346544 1.134289 0.000000 0.000000 0.000000 23.964999 1.592475 0.784296 3.041434 -10.411233 -3.090809 -18.573914 -31.593839 -38.305975 0.000000 -35.261763 -0.000001 0.000000 0.000000 0.000000 23.964999 1.592475 0.784296 0.212396 29.657293 11.250802 -27.771740 27.488836 21.814770 -0.000005 23.160709 0.000003 0.000000 0.000000 0.000000 
